<svg xmlns="http://www.w3.org/2000/svg" width="766" height="450" viewBox="0 0 766 450" font-family="Helvetica, Arial, sans-serif" font-size="14">
<rect width="766" height="450" fill="#ffffff"/>
<defs><marker id="arrow" viewBox="0 0 10 10" refX="8.5" refY="5" markerWidth="7" markerHeight="7" orient="auto"><path d="M 0 1 L 9 5 L 0 9 z" fill="#44507a"/></marker></defs>
<path d="M 99.1 115.5 C 99.1 147.5, 99.1 147.5, 99.1 179.5" fill="none" stroke="#44507a" stroke-width="1.7" marker-end="url(#arrow)"/>
<path d="M 133.8 98.4 C 133.8 138.9, 224.4 138.9, 224.4 179.5" fill="none" stroke="#44507a" stroke-width="1.7" marker-end="url(#arrow)"/>
<path d="M 99.1 217.5 C 99.1 249.5, 99.1 249.5, 99.1 281.5" fill="none" stroke="#44507a" stroke-width="1.7" marker-end="url(#arrow)"/>
<path d="M 99.1 319.5 C 99.1 351.5, 99.1 351.5, 99.1 383.5" fill="none" stroke="#44507a" stroke-width="1.7" marker-end="url(#arrow)"/>
<path d="M 154.2 319.5 C 154.2 351.5, 230.2 351.5, 230.2 383.5" fill="none" stroke="#44507a" stroke-width="1.7" marker-end="url(#arrow)"/>
<path d="M 154.2 319.5 C 154.2 351.5, 419.1 351.5, 419.1 383.5" fill="none" stroke="#44507a" stroke-width="1.7" marker-end="url(#arrow)"/>
<path d="M 266.5 217.5 C 266.5 249.5, 268.4 249.5, 268.4 281.5" fill="none" stroke="#44507a" stroke-width="1.7" marker-end="url(#arrow)"/>
<path d="M 304.0 217.5 C 304.0 249.5, 391.0 249.5, 391.0 281.5" fill="none" stroke="#44507a" stroke-width="1.7" marker-end="url(#arrow)"/>
<path d="M 304.0 217.5 C 304.0 249.5, 603.3 249.5, 603.3 281.5" fill="none" stroke="#44507a" stroke-width="1.7" marker-end="url(#arrow)"/>
<circle cx="99.1" cy="71.8" r="43.7" fill="#eef1fb" stroke="#5b6dc0" stroke-width="3"/>
<text x="99.1" y="71.8" dy="0.33em" text-anchor="middle" fill="#232840">go-routine</text>
<rect x="33.8" y="179.5" width="130.7" height="38.0" rx="3.0" fill="#eef1fb" stroke="#5b6dc0" stroke-width="1.6"/>
<text x="99.1" y="198.5" dy="0.33em" text-anchor="middle" fill="#232840">Diagram tooling</text>
<rect x="212.4" y="179.5" width="103.6" height="38.0" rx="3.0" fill="#eef1fb" stroke="#5b6dc0" stroke-width="1.6"/>
<text x="264.2" y="198.5" dy="0.33em" text-anchor="middle" fill="#232840">Product lab</text>
<rect x="32.0" y="281.5" width="134.2" height="38.0" rx="3.0" fill="#e5f5ea" stroke="#33a35c" stroke-width="1.6"/>
<text x="99.1" y="300.5" dy="0.33em" text-anchor="middle" fill="#1d7a43">flowmaid engine</text>
<rect x="28.0" y="383.5" width="142.2" height="38.0" rx="3.0" fill="#e5f5ea" stroke="#33a35c" stroke-width="1.6"/>
<text x="99.1" y="402.5" dy="0.33em" text-anchor="middle" fill="#1d7a43">wasm playground</text>
<rect x="218.2" y="383.5" width="140.9" height="38.0" rx="3.0" fill="#e5f5ea" stroke="#33a35c" stroke-width="1.6"/>
<text x="288.6" y="402.5" dy="0.33em" text-anchor="middle" fill="#1d7a43">flowmaid desktop</text>
<rect x="407.1" y="383.5" width="124.6" height="38.0" rx="3.0" fill="#f2ecfa" stroke="#8a5cd6" stroke-width="1.6"/>
<text x="469.4" y="402.5" dy="0.33em" text-anchor="middle" fill="#6b3fb0">diagram studio</text>
<rect x="214.2" y="281.5" width="112.9" height="38.0" rx="3.0" fill="#f2ecfa" stroke="#8a5cd6" stroke-width="1.6"/>
<text x="270.7" y="300.5" dy="0.33em" text-anchor="middle" fill="#6b3fb0">planner suite</text>
<rect x="375.1" y="281.5" width="168.2" height="38.0" rx="3.0" fill="#f2ecfa" stroke="#8a5cd6" stroke-width="1.6"/>
<text x="459.2" y="300.5" dy="0.33em" text-anchor="middle" fill="#6b3fb0">chat &amp; media services</text>
<rect x="591.3" y="281.5" width="147.2" height="38.0" rx="3.0" fill="#f2ecfa" stroke="#8a5cd6" stroke-width="1.6"/>
<text x="664.9" y="300.5" dy="0.33em" text-anchor="middle" fill="#6b3fb0">interview manager</text>
</svg>
